<svg width="128" height="128" viewBox="0 0 128 128" fill="none" xmlns="http://www.w3.org/2000/svg">
<rect width="128" height="128" fill="#333333"/>
<path d="M64.5 16C71.2321 16 77.5805 17.6394 83.1664 20.54L86.2328 17.4799C88.2097 15.5067 91.4153 15.5067 93.3922 17.4799C95.3691 19.4531 95.3691 22.6522 93.3922 24.6254L91.6168 26.3973C99.8347 33.7952 105 44.5061 105 56.4211V96.8421C105 105.214 98.2006 112 89.8125 112H39.1875C30.7997 112 24 105.214 24 96.8421V56.4211C24 44.5061 29.1654 33.7952 37.3831 26.3973L35.6078 24.6254C33.6307 22.6522 33.6307 19.4531 35.6078 17.4799C37.5848 15.5067 40.7902 15.5067 42.7672 17.4799L45.8333 20.54C51.4193 17.6394 57.7679 16 64.5 16ZM94.875 71.5789H34.125V96.8421C34.125 99.6327 36.3916 101.895 39.1875 101.895H89.8125C92.6085 101.895 94.875 99.6327 94.875 96.8421V71.5789ZM64.5 26.1053C48.1056 26.1053 34.7448 39.0682 34.146 55.2845L34.125 56.4211V61.4737H94.875V56.4211C94.875 39.6781 81.2756 26.1053 64.5 26.1053ZM49.3125 41.2632C52.1084 41.2632 54.375 43.5253 54.375 46.3158C54.375 49.1063 52.1084 51.3684 49.3125 51.3684C46.5166 51.3684 44.25 49.1063 44.25 46.3158C44.25 43.5253 46.5166 41.2632 49.3125 41.2632ZM79.6875 41.2632C82.4835 41.2632 84.75 43.5253 84.75 46.3158C84.75 49.1063 82.4835 51.3684 79.6875 51.3684C76.8915 51.3684 74.625 49.1063 74.625 46.3158C74.625 43.5253 76.8915 41.2632 79.6875 41.2632Z" fill="white"/>
</svg>
